<?xml version="1.0" standalone="no"?>
<!DOCTYPE svg PUBLIC "-//W3C//DTD SVG 20010904//EN"
 "http://www.w3.org/TR/2001/REC-SVG-20010904/DTD/svg10.dtd">
<svg version="1.0" xmlns="http://www.w3.org/2000/svg"
 width="431.000000pt" height="431.000000pt" viewBox="0 0 431.000000 431.000000"
 preserveAspectRatio="xMidYMid meet">
<metadata>
Created by potrace 1.11, written by Peter Selinger 2001-2013
</metadata>
<g transform="translate(0.000000,431.000000) scale(0.100000,-0.100000)"
fill="#000000" stroke="none">
<path d="M2775 3752 c-3 -4 -62 -7 -130 -7 -87 -1 -127 -5 -139 -14 -9 -7 -13
-17 -10 -22 3 -5 0 -9 -6 -9 -6 0 -9 -4 -5 -9 3 -5 -2 -17 -11 -25 -8 -9 -13
-16 -9 -16 3 0 -3 -13 -14 -29 -12 -16 -21 -36 -21 -45 0 -9 -4 -16 -10 -16
-5 0 -10 -9 -10 -19 0 -11 -5 -23 -10 -26 -6 -4 -8 -10 -5 -15 3 -4 -2 -10
-10 -14 -8 -3 -15 -15 -15 -26 0 -11 -5 -20 -11 -20 -5 0 -8 -4 -5 -9 4 -5 1
-11 -4 -13 -6 -2 -12 -13 -13 -25 0 -13 -6 -24 -12 -27 -6 -2 -17 -23 -25 -46
-8 -23 -20 -44 -27 -47 -7 -3 -10 -9 -7 -14 3 -5 -4 -22 -15 -38 -11 -15 -18
-31 -14 -35 3 -3 0 -6 -7 -6 -7 0 -10 -3 -7 -6 4 -4 -2 -19 -13 -34 -11 -16
-20 -35 -20 -44 0 -9 -4 -16 -10 -16 -5 0 -10 -6 -10 -13 0 -16 -29 -77 -36
-77 -3 0 -3 4 1 9 3 6 -3 14 -12 20 -10 6 -14 11 -9 11 5 0 1 9 -9 20 -10 11
-14 20 -9 20 5 0 4 4 -1 8 -19 13 -45 61 -45 83 0 12 -3 19 -7 16 -3 -4 -12 5
-20 20 -7 14 -11 28 -8 31 2 3 -5 13 -16 23 -11 9 -21 21 -21 26 -3 25 -12 43
-21 43 -6 0 -7 3 -4 7 4 3 3 11 -2 17 -22 29 -69 124 -64 130 4 3 2 6 -4 6 -5
0 -25 32 -44 70 -18 39 -37 70 -42 70 -4 0 -5 5 -2 10 3 6 1 10 -4 10 -6 0
-11 3 -10 8 2 15 -14 52 -22 52 -5 0 -9 7 -9 17 0 9 -3 13 -6 10 -4 -3 -15 -2
-25 4 -11 5 -19 6 -19 2 0 -9 -134 -8 -149 2 -6 3 -11 2 -11 -2 0 -5 -20 -7
-45 -6 -28 2 -44 -1 -40 -7 3 -6 -1 -7 -9 -4 -9 3 -13 11 -9 17 4 6 1 7 -8 1
-21 -13 -80 -13 -72 0 4 6 0 6 -8 -1 -8 -7 -26 -9 -39 -6 -17 5 -21 3 -15 -7
6 -10 4 -11 -6 -4 -20 12 -73 12 -81 0 -5 -7 -11 -6 -18 4 -9 13 -10 13 -10 0
0 -9 -3 -11 -8 -5 -10 14 -42 15 -42 2 0 -8 -3 -8 -11 0 -6 6 -25 7 -49 3 -24
-4 -43 -3 -49 3 -8 8 -11 7 -11 -1 0 -8 -7 -9 -26 -2 -14 6 -23 6 -20 2 6 -10
-117 -7 -134 3 -8 5 -11 4 -6 -3 8 -13 -33 -13 -51 0 -7 5 -14 5 -18 -2 -5 -8
-11 -7 -23 2 -13 10 -14 10 -8 0 6 -9 1 -11 -18 -8 -16 3 -26 0 -26 -7 0 -8
-3 -8 -8 -2 -6 9 -90 13 -117 5 -5 -1 -12 -1 -15 0 -3 1 -21 3 -41 4 -27 1
-35 -2 -36 -16 -1 -10 2 -18 7 -18 5 0 11 -13 15 -30 4 -16 10 -30 15 -30 5 0
14 -16 21 -34 7 -19 16 -33 20 -30 5 2 6 -4 4 -15 -2 -11 3 -22 11 -25 8 -3
14 -12 14 -21 0 -8 5 -15 12 -15 6 0 9 -3 5 -6 -7 -7 19 -61 39 -82 8 -7 12
-18 9 -23 -4 -5 -3 -9 2 -9 4 0 14 -15 21 -32 7 -18 18 -40 23 -48 5 -8 15
-26 21 -40 7 -14 15 -27 18 -30 3 -3 11 -16 18 -30 6 -14 16 -32 21 -40 5 -8
16 -30 23 -47 7 -18 17 -33 21 -33 5 0 5 -4 2 -10 -3 -5 -1 -10 5 -10 6 0 8
-4 5 -10 -3 -5 -2 -10 3 -10 10 0 36 -58 33 -72 0 -5 3 -8 7 -8 5 0 23 -31 42
-70 19 -38 38 -70 43 -70 5 0 7 -7 3 -15 -3 -8 0 -15 6 -15 6 0 8 -3 5 -6 -4
-4 1 -14 11 -23 9 -9 19 -25 20 -36 2 -11 8 -21 13 -23 5 -2 9 -10 9 -18 0 -9
4 -12 10 -9 5 3 7 0 4 -8 -3 -8 2 -20 11 -27 8 -7 15 -21 15 -31 0 -11 4 -19
8 -19 4 0 14 -17 21 -37 8 -21 22 -50 32 -65 11 -14 19 -31 19 -37 0 -6 5 -11
11 -11 5 0 7 -4 4 -10 -3 -5 -1 -10 5 -10 6 0 8 -4 5 -10 -3 -5 -1 -10 4 -10
6 0 11 -9 11 -20 0 -11 5 -20 10 -20 6 0 10 -7 10 -15 0 -8 5 -15 10 -15 6 0
9 -3 8 -7 -1 -5 10 -31 24 -60 14 -28 23 -55 20 -59 -4 -4 -2 -4 4 -1 6 3 17
-9 24 -28 8 -19 17 -35 22 -35 4 0 7 -3 6 -7 -2 -13 20 -61 32 -68 5 -3 8 -11
5 -16 -4 -5 -1 -9 5 -9 6 0 8 -4 5 -10 -3 -5 -2 -10 3 -10 6 0 13 -11 16 -25
4 -14 11 -23 16 -20 6 3 7 -1 4 -9 -3 -9 -1 -16 5 -16 6 0 10 -3 9 -7 -1 -5 3
-18 10 -30 7 -13 10 -23 7 -23 -3 0 4 -9 15 -20 11 -11 20 -27 20 -35 0 -8 5
-15 10 -15 6 0 10 -3 9 -7 -2 -16 14 -53 23 -53 5 0 6 -4 3 -10 -3 -5 -1 -10
5 -10 6 0 8 -4 5 -10 -3 -5 -1 -10 5 -10 6 0 8 -4 5 -10 -3 -5 -3 -10 2 -10 8
0 34 -52 34 -67 0 -4 7 -12 15 -16 8 -4 14 -16 14 -27 0 -10 3 -20 8 -22 4 -1
18 -27 31 -55 14 -29 28 -53 33 -53 4 0 8 -9 8 -20 0 -11 5 -20 11 -20 5 0 7
-5 4 -10 -3 -5 -1 -10 5 -10 6 0 8 -4 5 -10 -3 -5 -1 -10 5 -10 6 0 8 -4 5
-10 -3 -5 -1 -10 5 -10 7 0 9 -7 6 -17 -4 -10 -4 -14 0 -10 9 9 75 -113 68
-124 -3 -5 0 -9 6 -9 6 0 20 -19 30 -43 11 -23 23 -46 27 -51 4 -4 8 -11 8
-14 2 -25 18 -51 27 -46 7 5 9 1 5 -9 -3 -10 -2 -17 3 -17 6 0 10 -6 10 -13 0
-8 14 -33 31 -57 17 -23 26 -39 20 -36 -15 10 -14 0 2 -16 6 -7 22 -34 35 -61
13 -26 27 -47 32 -47 5 0 7 -6 4 -14 -3 -7 2 -20 10 -29 9 -9 16 -20 16 -26 0
-6 5 -11 11 -11 5 0 7 -5 4 -11 -4 -6 1 -17 11 -25 11 -9 13 -13 4 -9 -9 4 -8
1 3 -8 10 -9 18 -17 17 -19 -3 -7 14 -44 32 -70 10 -14 18 -33 18 -42 0 -8 6
-13 13 -10 14 5 41 61 40 82 -1 6 6 12 15 12 8 0 13 3 9 6 -3 4 5 26 18 50 14
24 22 44 19 44 -3 0 2 7 10 16 9 8 14 20 11 25 -4 5 -1 9 5 9 6 0 9 4 6 9 -4
5 -3 11 1 13 12 5 68 121 67 135 -1 7 4 13 12 13 8 0 13 3 12 8 -4 13 13 52
23 52 5 0 8 3 7 8 -3 13 14 62 22 62 8 0 23 38 21 53 -1 4 3 7 8 7 5 0 12 11
15 25 4 14 10 24 15 21 4 -3 7 6 5 19 -1 14 2 23 7 19 8 -5 13 9 10 29 0 4 4
7 10 7 5 0 7 5 4 10 -3 6 -2 10 3 10 9 0 23 31 26 55 1 6 7 14 14 18 7 5 10
12 7 18 -4 5 -2 9 2 9 9 0 37 59 34 73 0 4 4 7 10 7 5 0 7 5 4 10 -3 6 -3 10
2 10 11 0 34 51 27 61 -3 5 1 9 8 9 8 0 15 10 15 22 1 13 8 27 15 33 7 5 14
19 16 29 2 10 10 25 18 33 8 8 12 19 9 24 -4 5 -2 9 2 9 5 0 14 9 21 21 8 12
9 18 3 14 -6 -3 -11 -2 -11 3 0 6 7 13 16 16 9 4 14 13 10 21 -3 8 -1 15 4 15
10 0 40 57 40 77 0 7 5 13 10 13 6 0 10 9 10 19 0 11 3 21 8 23 9 4 52 91 52
107 0 6 5 11 10 11 6 0 10 9 10 19 0 11 3 21 8 23 4 2 20 31 36 66 16 34 33
62 38 62 4 0 7 3 6 8 -3 14 14 62 22 62 5 0 11 14 15 30 4 17 10 30 15 30 4 0
10 8 12 18 3 9 6 22 8 27 1 6 11 21 21 34 11 13 19 32 19 42 0 11 5 19 12 19
6 0 9 3 5 6 -3 4 1 13 9 21 8 9 13 22 10 29 -3 9 1 14 12 14 12 0 13 3 5 8 -9
6 -7 12 7 25 11 9 20 26 20 37 0 11 5 20 11 20 5 0 7 5 4 10 -3 6 -1 10 6 10
7 0 9 3 6 6 -4 4 3 20 14 35 11 16 17 29 12 29 -4 0 -3 4 3 8 16 11 45 74 31
66 -7 -3 -4 1 6 9 9 8 17 19 17 26 0 6 4 11 10 11 5 0 7 7 4 15 -4 8 -2 15 4
15 6 0 13 14 17 30 4 17 11 30 16 30 6 0 7 5 4 10 -3 6 -2 10 3 10 11 0 25 38
22 59 -1 7 3 10 9 6 6 -3 12 0 13 7 0 7 2 20 2 28 1 8 7 14 14 13 6 -2 9 4 6
12 -4 8 -1 15 6 15 6 0 8 5 5 10 -3 6 0 13 9 16 9 3 12 12 9 21 -4 11 -2 14 5
9 8 -5 10 -2 6 8 -3 9 -2 16 4 16 6 0 13 14 17 30 4 17 10 30 15 30 4 0 11 12
14 26 4 15 14 33 22 41 8 8 12 19 9 24 -4 5 -1 9 5 9 6 0 9 4 6 8 -3 5 4 19
15 30 13 15 15 22 7 22 -8 1 -7 5 4 14 10 7 15 16 11 19 -3 4 2 9 11 13 9 3
13 11 10 16 -4 6 -2 13 3 17 5 3 21 33 36 66 15 33 31 59 36 58 5 -1 7 6 4 17
-3 12 1 22 10 26 9 3 13 12 10 20 -3 8 -1 14 4 14 6 0 16 18 23 40 7 21 16 37
21 35 4 -3 6 3 5 12 -2 10 2 21 8 25 6 5 -69 8 -167 7 -133 0 -176 -3 -171
-12 5 -8 3 -8 -7 1 -7 6 -24 12 -37 12 -16 0 -21 -4 -16 -12 6 -10 4 -10 -7
-2 -18 15 -119 15 -119 0 0 -7 -3 -8 -8 -1 -10 15 -82 16 -82 2 0 -8 -3 -7 -9
1 -4 8 -12 14 -16 14 -4 0 -12 -6 -16 -14 -5 -7 -9 -8 -9 -3 0 6 -9 11 -20 12
-13 1 -18 -2 -13 -10 4 -7 0 -6 -10 2 -14 11 -17 11 -17 0 0 -12 -2 -12 -9 -1
-9 15 -20 15 -38 0 -9 -8 -13 -7 -13 3 0 9 -3 10 -8 4 -10 -14 -32 -17 -32 -4
0 8 -5 8 -15 -1 -12 -10 -15 -10 -15 1 0 12 -2 12 -9 0 -6 -9 -10 -10 -16 -2
-5 9 -10 9 -21 0 -11 -9 -17 -9 -28 0 -11 9 -16 9 -21 0 -6 -8 -10 -7 -16 2
-7 11 -9 11 -9 1 0 -9 -5 -10 -19 -3 -10 6 -22 7 -26 3z"/>
</g>
</svg>
